<?xml version="1.0" encoding="utf-8" standalone="no"?>
<!DOCTYPE svg PUBLIC "-//W3C//DTD SVG 1.1//EN"
  "http://www.w3.org/Graphics/SVG/1.1/DTD/svg11.dtd">
<svg height="907.23125pt" version="1.1" viewBox="0 0 2026.360625 907.23125" width="2026.360625pt" xmlns="http://www.w3.org/2000/svg" xmlns:xlink="http://www.w3.org/1999/xlink">
 <metadata>
  <rdf:RDF xmlns:cc="http://creativecommons.org/ns#" xmlns:dc="http://purl.org/dc/elements/1.1/" xmlns:rdf="http://www.w3.org/1999/02/22-rdf-syntax-ns#">
   <cc:Work>
    <dc:type rdf:resource="http://purl.org/dc/dcmitype/StillImage"/>
    <dc:date>2022-06-05T16:12:20.748045</dc:date>
    <dc:format>image/svg+xml</dc:format>
    <dc:creator>
     <cc:Agent>
      <dc:title>Matplotlib v3.4.1, https://matplotlib.org/</dc:title>
     </cc:Agent>
    </dc:creator>
   </cc:Work>
  </rdf:RDF>
 </metadata>
 <defs>
  <style type="text/css">*{stroke-linecap:butt;stroke-linejoin:round;}</style>
 </defs>
 <g id="figure_1">
  <g id="patch_1">
   <path d="M 0 907.23125 
L 2026.360625 907.23125 
L 2026.360625 -0 
L 0 -0 
z
" style="fill:#ffffff;"/>
  </g>
  <g id="axes_1">
   <g id="patch_2">
    <path d="M 58.525625 406.396875 
L 946.252898 406.396875 
L 946.252898 28.396875 
L 58.525625 28.396875 
z
" style="fill:#ffffff;"/>
   </g>
   <g id="matplotlib.axis_1">
    <g id="xtick_1">
     <g id="line2d_1">
      <defs>
       <path d="M 0 0 
L 0 3.5 
" id="m36c6976079" style="stroke:#000000;stroke-width:0.8;"/>
      </defs>
      <g>
       <use style="stroke:#000000;stroke-width:0.8;" x="206.48017" xlink:href="#m36c6976079" y="406.396875"/>
      </g>
     </g>
     <g id="text_1">
      <!-- 10 -->
      <g transform="translate(198.84517 422.515)scale(0.12 -0.12)">
       <defs>
        <path d="M 794 531 
L 1825 531 
L 1825 4091 
L 703 3866 
L 703 4441 
L 1819 4666 
L 2450 4666 
L 2450 531 
L 3481 531 
L 3481 0 
L 794 0 
L 794 531 
z
" id="DejaVuSans-31" transform="scale(0.015625)"/>
        <path d="M 2034 4250 
Q 1547 4250 1301 3770 
Q 1056 3291 1056 2328 
Q 1056 1369 1301 889 
Q 1547 409 2034 409 
Q 2525 409 2770 889 
Q 3016 1369 3016 2328 
Q 3016 3291 2770 3770 
Q 2525 4250 2034 4250 
z
M 2034 4750 
Q 2819 4750 3233 4129 
Q 3647 3509 3647 2328 
Q 3647 1150 3233 529 
Q 2819 -91 2034 -91 
Q 1250 -91 836 529 
Q 422 1150 422 2328 
Q 422 3509 836 4129 
Q 1250 4750 2034 4750 
z
" id="DejaVuSans-30" transform="scale(0.015625)"/>
       </defs>
       <use xlink:href="#DejaVuSans-31"/>
       <use x="63.623047" xlink:href="#DejaVuSans-30"/>
      </g>
     </g>
    </g>
    <g id="xtick_2">
     <g id="line2d_2">
      <g>
       <use style="stroke:#000000;stroke-width:0.8;" x="354.434716" xlink:href="#m36c6976079" y="406.396875"/>
      </g>
     </g>
     <g id="text_2">
      <!-- 20 -->
      <g transform="translate(346.799716 422.515)scale(0.12 -0.12)">
       <defs>
        <path d="M 1228 531 
L 3431 531 
L 3431 0 
L 469 0 
L 469 531 
Q 828 903 1448 1529 
Q 2069 2156 2228 2338 
Q 2531 2678 2651 2914 
Q 2772 3150 2772 3378 
Q 2772 3750 2511 3984 
Q 2250 4219 1831 4219 
Q 1534 4219 1204 4116 
Q 875 4013 500 3803 
L 500 4441 
Q 881 4594 1212 4672 
Q 1544 4750 1819 4750 
Q 2544 4750 2975 4387 
Q 3406 4025 3406 3419 
Q 3406 3131 3298 2873 
Q 3191 2616 2906 2266 
Q 2828 2175 2409 1742 
Q 1991 1309 1228 531 
z
" id="DejaVuSans-32" transform="scale(0.015625)"/>
       </defs>
       <use xlink:href="#DejaVuSans-32"/>
       <use x="63.623047" xlink:href="#DejaVuSans-30"/>
      </g>
     </g>
    </g>
    <g id="xtick_3">
     <g id="line2d_3">
      <g>
       <use style="stroke:#000000;stroke-width:0.8;" x="502.389261" xlink:href="#m36c6976079" y="406.396875"/>
      </g>
     </g>
     <g id="text_3">
      <!-- 30 -->
      <g transform="translate(494.754261 422.515)scale(0.12 -0.12)">
       <defs>
        <path d="M 2597 2516 
Q 3050 2419 3304 2112 
Q 3559 1806 3559 1356 
Q 3559 666 3084 287 
Q 2609 -91 1734 -91 
Q 1441 -91 1130 -33 
Q 819 25 488 141 
L 488 750 
Q 750 597 1062 519 
Q 1375 441 1716 441 
Q 2309 441 2620 675 
Q 2931 909 2931 1356 
Q 2931 1769 2642 2001 
Q 2353 2234 1838 2234 
L 1294 2234 
L 1294 2753 
L 1863 2753 
Q 2328 2753 2575 2939 
Q 2822 3125 2822 3475 
Q 2822 3834 2567 4026 
Q 2313 4219 1838 4219 
Q 1578 4219 1281 4162 
Q 984 4106 628 3988 
L 628 4550 
Q 988 4650 1302 4700 
Q 1616 4750 1894 4750 
Q 2613 4750 3031 4423 
Q 3450 4097 3450 3541 
Q 3450 3153 3228 2886 
Q 3006 2619 2597 2516 
z
" id="DejaVuSans-33" transform="scale(0.015625)"/>
       </defs>
       <use xlink:href="#DejaVuSans-33"/>
       <use x="63.623047" xlink:href="#DejaVuSans-30"/>
      </g>
     </g>
    </g>
    <g id="xtick_4">
     <g id="line2d_4">
      <g>
       <use style="stroke:#000000;stroke-width:0.8;" x="650.343807" xlink:href="#m36c6976079" y="406.396875"/>
      </g>
     </g>
     <g id="text_4">
      <!-- 40 -->
      <g transform="translate(642.708807 422.515)scale(0.12 -0.12)">
       <defs>
        <path d="M 2419 4116 
L 825 1625 
L 2419 1625 
L 2419 4116 
z
M 2253 4666 
L 3047 4666 
L 3047 1625 
L 3713 1625 
L 3713 1100 
L 3047 1100 
L 3047 0 
L 2419 0 
L 2419 1100 
L 313 1100 
L 313 1709 
L 2253 4666 
z
" id="DejaVuSans-34" transform="scale(0.015625)"/>
       </defs>
       <use xlink:href="#DejaVuSans-34"/>
       <use x="63.623047" xlink:href="#DejaVuSans-30"/>
      </g>
     </g>
    </g>
    <g id="xtick_5">
     <g id="line2d_5">
      <g>
       <use style="stroke:#000000;stroke-width:0.8;" x="798.298352" xlink:href="#m36c6976079" y="406.396875"/>
      </g>
     </g>
     <g id="text_5">
      <!-- 50 -->
      <g transform="translate(790.663352 422.515)scale(0.12 -0.12)">
       <defs>
        <path d="M 691 4666 
L 3169 4666 
L 3169 4134 
L 1269 4134 
L 1269 2991 
Q 1406 3038 1543 3061 
Q 1681 3084 1819 3084 
Q 2600 3084 3056 2656 
Q 3513 2228 3513 1497 
Q 3513 744 3044 326 
Q 2575 -91 1722 -91 
Q 1428 -91 1123 -41 
Q 819 9 494 109 
L 494 744 
Q 775 591 1075 516 
Q 1375 441 1709 441 
Q 2250 441 2565 725 
Q 2881 1009 2881 1497 
Q 2881 1984 2565 2268 
Q 2250 2553 1709 2553 
Q 1456 2553 1204 2497 
Q 953 2441 691 2322 
L 691 4666 
z
" id="DejaVuSans-35" transform="scale(0.015625)"/>
       </defs>
       <use xlink:href="#DejaVuSans-35"/>
       <use x="63.623047" xlink:href="#DejaVuSans-30"/>
      </g>
     </g>
    </g>
    <g id="xtick_6">
     <g id="line2d_6">
      <g>
       <use style="stroke:#000000;stroke-width:0.8;" x="946.252898" xlink:href="#m36c6976079" y="406.396875"/>
      </g>
     </g>
     <g id="text_6">
      <!-- 60 -->
      <g transform="translate(938.617898 422.515)scale(0.12 -0.12)">
       <defs>
        <path d="M 2113 2584 
Q 1688 2584 1439 2293 
Q 1191 2003 1191 1497 
Q 1191 994 1439 701 
Q 1688 409 2113 409 
Q 2538 409 2786 701 
Q 3034 994 3034 1497 
Q 3034 2003 2786 2293 
Q 2538 2584 2113 2584 
z
M 3366 4563 
L 3366 3988 
Q 3128 4100 2886 4159 
Q 2644 4219 2406 4219 
Q 1781 4219 1451 3797 
Q 1122 3375 1075 2522 
Q 1259 2794 1537 2939 
Q 1816 3084 2150 3084 
Q 2853 3084 3261 2657 
Q 3669 2231 3669 1497 
Q 3669 778 3244 343 
Q 2819 -91 2113 -91 
Q 1303 -91 875 529 
Q 447 1150 447 2328 
Q 447 3434 972 4092 
Q 1497 4750 2381 4750 
Q 2619 4750 2861 4703 
Q 3103 4656 3366 4563 
z
" id="DejaVuSans-36" transform="scale(0.015625)"/>
       </defs>
       <use xlink:href="#DejaVuSans-36"/>
       <use x="63.623047" xlink:href="#DejaVuSans-30"/>
      </g>
     </g>
    </g>
   </g>
   <g id="matplotlib.axis_2">
    <g id="ytick_1">
     <g id="line2d_7">
      <defs>
       <path d="M 0 0 
L -3.5 0 
" id="m2d4ceeaf04" style="stroke:#000000;stroke-width:0.8;"/>
      </defs>
      <g>
       <use style="stroke:#000000;stroke-width:0.8;" x="58.525625" xlink:href="#m2d4ceeaf04" y="406.396875"/>
      </g>
     </g>
     <g id="text_7">
      <!-- 0 -->
      <g transform="translate(43.890625 410.955937)scale(0.12 -0.12)">
       <use xlink:href="#DejaVuSans-30"/>
      </g>
     </g>
    </g>
    <g id="ytick_2">
     <g id="line2d_8">
      <g>
       <use style="stroke:#000000;stroke-width:0.8;" x="58.525625" xlink:href="#m2d4ceeaf04" y="332.279228"/>
      </g>
     </g>
     <g id="text_8">
      <!-- 20 -->
      <g transform="translate(36.255625 336.83829)scale(0.12 -0.12)">
       <use xlink:href="#DejaVuSans-32"/>
       <use x="63.623047" xlink:href="#DejaVuSans-30"/>
      </g>
     </g>
    </g>
    <g id="ytick_3">
     <g id="line2d_9">
      <g>
       <use style="stroke:#000000;stroke-width:0.8;" x="58.525625" xlink:href="#m2d4ceeaf04" y="258.161581"/>
      </g>
     </g>
     <g id="text_9">
      <!-- 40 -->
      <g transform="translate(36.255625 262.720643)scale(0.12 -0.12)">
       <use xlink:href="#DejaVuSans-34"/>
       <use x="63.623047" xlink:href="#DejaVuSans-30"/>
      </g>
     </g>
    </g>
    <g id="ytick_4">
     <g id="line2d_10">
      <g>
       <use style="stroke:#000000;stroke-width:0.8;" x="58.525625" xlink:href="#m2d4ceeaf04" y="184.043934"/>
      </g>
     </g>
     <g id="text_10">
      <!-- 60 -->
      <g transform="translate(36.255625 188.602996)scale(0.12 -0.12)">
       <use xlink:href="#DejaVuSans-36"/>
       <use x="63.623047" xlink:href="#DejaVuSans-30"/>
      </g>
     </g>
    </g>
    <g id="ytick_5">
     <g id="line2d_11">
      <g>
       <use style="stroke:#000000;stroke-width:0.8;" x="58.525625" xlink:href="#m2d4ceeaf04" y="109.926287"/>
      </g>
     </g>
     <g id="text_11">
      <!-- 80 -->
      <g transform="translate(36.255625 114.485349)scale(0.12 -0.12)">
       <defs>
        <path d="M 2034 2216 
Q 1584 2216 1326 1975 
Q 1069 1734 1069 1313 
Q 1069 891 1326 650 
Q 1584 409 2034 409 
Q 2484 409 2743 651 
Q 3003 894 3003 1313 
Q 3003 1734 2745 1975 
Q 2488 2216 2034 2216 
z
M 1403 2484 
Q 997 2584 770 2862 
Q 544 3141 544 3541 
Q 544 4100 942 4425 
Q 1341 4750 2034 4750 
Q 2731 4750 3128 4425 
Q 3525 4100 3525 3541 
Q 3525 3141 3298 2862 
Q 3072 2584 2669 2484 
Q 3125 2378 3379 2068 
Q 3634 1759 3634 1313 
Q 3634 634 3220 271 
Q 2806 -91 2034 -91 
Q 1263 -91 848 271 
Q 434 634 434 1313 
Q 434 1759 690 2068 
Q 947 2378 1403 2484 
z
M 1172 3481 
Q 1172 3119 1398 2916 
Q 1625 2713 2034 2713 
Q 2441 2713 2670 2916 
Q 2900 3119 2900 3481 
Q 2900 3844 2670 4047 
Q 2441 4250 2034 4250 
Q 1625 4250 1398 4047 
Q 1172 3844 1172 3481 
z
" id="DejaVuSans-38" transform="scale(0.015625)"/>
       </defs>
       <use xlink:href="#DejaVuSans-38"/>
       <use x="63.623047" xlink:href="#DejaVuSans-30"/>
      </g>
     </g>
    </g>
    <g id="ytick_6">
     <g id="line2d_12">
      <g>
       <use style="stroke:#000000;stroke-width:0.8;" x="58.525625" xlink:href="#m2d4ceeaf04" y="35.80864"/>
      </g>
     </g>
     <g id="text_12">
      <!-- 100 -->
      <g transform="translate(28.620625 40.367702)scale(0.12 -0.12)">
       <use xlink:href="#DejaVuSans-31"/>
       <use x="63.623047" xlink:href="#DejaVuSans-30"/>
       <use x="127.246094" xlink:href="#DejaVuSans-30"/>
      </g>
     </g>
    </g>
    <g id="text_13">
     <!-- Usage (%) -->
     <g transform="translate(20.877187 263.873437)rotate(-90)scale(0.18 -0.18)">
      <defs>
       <path d="M 556 4666 
L 1191 4666 
L 1191 1831 
Q 1191 1081 1462 751 
Q 1734 422 2344 422 
Q 2950 422 3222 751 
Q 3494 1081 3494 1831 
L 3494 4666 
L 4128 4666 
L 4128 1753 
Q 4128 841 3676 375 
Q 3225 -91 2344 -91 
Q 1459 -91 1007 375 
Q 556 841 556 1753 
L 556 4666 
z
" id="DejaVuSans-55" transform="scale(0.015625)"/>
       <path d="M 2834 3397 
L 2834 2853 
Q 2591 2978 2328 3040 
Q 2066 3103 1784 3103 
Q 1356 3103 1142 2972 
Q 928 2841 928 2578 
Q 928 2378 1081 2264 
Q 1234 2150 1697 2047 
L 1894 2003 
Q 2506 1872 2764 1633 
Q 3022 1394 3022 966 
Q 3022 478 2636 193 
Q 2250 -91 1575 -91 
Q 1294 -91 989 -36 
Q 684 19 347 128 
L 347 722 
Q 666 556 975 473 
Q 1284 391 1588 391 
Q 1994 391 2212 530 
Q 2431 669 2431 922 
Q 2431 1156 2273 1281 
Q 2116 1406 1581 1522 
L 1381 1569 
Q 847 1681 609 1914 
Q 372 2147 372 2553 
Q 372 3047 722 3315 
Q 1072 3584 1716 3584 
Q 2034 3584 2315 3537 
Q 2597 3491 2834 3397 
z
" id="DejaVuSans-73" transform="scale(0.015625)"/>
       <path d="M 2194 1759 
Q 1497 1759 1228 1600 
Q 959 1441 959 1056 
Q 959 750 1161 570 
Q 1363 391 1709 391 
Q 2188 391 2477 730 
Q 2766 1069 2766 1631 
L 2766 1759 
L 2194 1759 
z
M 3341 1997 
L 3341 0 
L 2766 0 
L 2766 531 
Q 2569 213 2275 61 
Q 1981 -91 1556 -91 
Q 1019 -91 701 211 
Q 384 513 384 1019 
Q 384 1609 779 1909 
Q 1175 2209 1959 2209 
L 2766 2209 
L 2766 2266 
Q 2766 2663 2505 2880 
Q 2244 3097 1772 3097 
Q 1472 3097 1187 3025 
Q 903 2953 641 2809 
L 641 3341 
Q 956 3463 1253 3523 
Q 1550 3584 1831 3584 
Q 2591 3584 2966 3190 
Q 3341 2797 3341 1997 
z
" id="DejaVuSans-61" transform="scale(0.015625)"/>
       <path d="M 2906 1791 
Q 2906 2416 2648 2759 
Q 2391 3103 1925 3103 
Q 1463 3103 1205 2759 
Q 947 2416 947 1791 
Q 947 1169 1205 825 
Q 1463 481 1925 481 
Q 2391 481 2648 825 
Q 2906 1169 2906 1791 
z
M 3481 434 
Q 3481 -459 3084 -895 
Q 2688 -1331 1869 -1331 
Q 1566 -1331 1297 -1286 
Q 1028 -1241 775 -1147 
L 775 -588 
Q 1028 -725 1275 -790 
Q 1522 -856 1778 -856 
Q 2344 -856 2625 -561 
Q 2906 -266 2906 331 
L 2906 616 
Q 2728 306 2450 153 
Q 2172 0 1784 0 
Q 1141 0 747 490 
Q 353 981 353 1791 
Q 353 2603 747 3093 
Q 1141 3584 1784 3584 
Q 2172 3584 2450 3431 
Q 2728 3278 2906 2969 
L 2906 3500 
L 3481 3500 
L 3481 434 
z
" id="DejaVuSans-67" transform="scale(0.015625)"/>
       <path d="M 3597 1894 
L 3597 1613 
L 953 1613 
Q 991 1019 1311 708 
Q 1631 397 2203 397 
Q 2534 397 2845 478 
Q 3156 559 3463 722 
L 3463 178 
Q 3153 47 2828 -22 
Q 2503 -91 2169 -91 
Q 1331 -91 842 396 
Q 353 884 353 1716 
Q 353 2575 817 3079 
Q 1281 3584 2069 3584 
Q 2775 3584 3186 3129 
Q 3597 2675 3597 1894 
z
M 3022 2063 
Q 3016 2534 2758 2815 
Q 2500 3097 2075 3097 
Q 1594 3097 1305 2825 
Q 1016 2553 972 2059 
L 3022 2063 
z
" id="DejaVuSans-65" transform="scale(0.015625)"/>
       <path id="DejaVuSans-20" transform="scale(0.015625)"/>
       <path d="M 1984 4856 
Q 1566 4138 1362 3434 
Q 1159 2731 1159 2009 
Q 1159 1288 1364 580 
Q 1569 -128 1984 -844 
L 1484 -844 
Q 1016 -109 783 600 
Q 550 1309 550 2009 
Q 550 2706 781 3412 
Q 1013 4119 1484 4856 
L 1984 4856 
z
" id="DejaVuSans-28" transform="scale(0.015625)"/>
       <path d="M 4653 2053 
Q 4381 2053 4226 1822 
Q 4072 1591 4072 1178 
Q 4072 772 4226 539 
Q 4381 306 4653 306 
Q 4919 306 5073 539 
Q 5228 772 5228 1178 
Q 5228 1588 5073 1820 
Q 4919 2053 4653 2053 
z
M 4653 2450 
Q 5147 2450 5437 2106 
Q 5728 1763 5728 1178 
Q 5728 594 5436 251 
Q 5144 -91 4653 -91 
Q 4153 -91 3862 251 
Q 3572 594 3572 1178 
Q 3572 1766 3864 2108 
Q 4156 2450 4653 2450 
z
M 1428 4353 
Q 1159 4353 1004 4120 
Q 850 3888 850 3481 
Q 850 3069 1003 2837 
Q 1156 2606 1428 2606 
Q 1700 2606 1854 2837 
Q 2009 3069 2009 3481 
Q 2009 3884 1853 4118 
Q 1697 4353 1428 4353 
z
M 4250 4750 
L 4750 4750 
L 1831 -91 
L 1331 -91 
L 4250 4750 
z
M 1428 4750 
Q 1922 4750 2215 4408 
Q 2509 4066 2509 3481 
Q 2509 2891 2217 2550 
Q 1925 2209 1428 2209 
Q 931 2209 642 2551 
Q 353 2894 353 3481 
Q 353 4063 643 4406 
Q 934 4750 1428 4750 
z
" id="DejaVuSans-25" transform="scale(0.015625)"/>
       <path d="M 513 4856 
L 1013 4856 
Q 1481 4119 1714 3412 
Q 1947 2706 1947 2009 
Q 1947 1309 1714 600 
Q 1481 -109 1013 -844 
L 513 -844 
Q 928 -128 1133 580 
Q 1338 1288 1338 2009 
Q 1338 2731 1133 3434 
Q 928 4138 513 4856 
z
" id="DejaVuSans-29" transform="scale(0.015625)"/>
      </defs>
      <use xlink:href="#DejaVuSans-55"/>
      <use x="73.193359" xlink:href="#DejaVuSans-73"/>
      <use x="125.292969" xlink:href="#DejaVuSans-61"/>
      <use x="186.572266" xlink:href="#DejaVuSans-67"/>
      <use x="250.048828" xlink:href="#DejaVuSans-65"/>
      <use x="311.572266" xlink:href="#DejaVuSans-20"/>
      <use x="343.359375" xlink:href="#DejaVuSans-28"/>
      <use x="382.373047" xlink:href="#DejaVuSans-25"/>
      <use x="477.392578" xlink:href="#DejaVuSans-29"/>
     </g>
    </g>
   </g>
   <g id="line2d_13">
    <path clip-path="url(#pddeb565e44)" d="M 58.525625 352.661581 
L 65.923352 341.173346 
L 73.32108 337.467463 
L 80.718807 345.620404 
L 88.116534 333.390993 
L 95.514261 330.055699 
L 102.911989 308.190993 
L 110.309716 309.302757 
L 117.707443 324.126287 
L 125.10517 320.049816 
L 132.502898 308.190993 
L 139.900625 305.596875 
L 147.298352 270.390993 
L 154.69608 116.226287 
L 162.093807 185.526287 
L 169.491534 308.561581 
L 176.889261 301.520404 
L 184.286989 310.414522 
L 191.684716 310.78511 
L 199.082443 285.58511 
L 206.48017 211.096875 
L 213.877898 228.88511 
L 221.275625 300.038051 
L 228.673352 306.70864 
L 236.07108 309.302757 
L 243.468807 243.70864 
L 250.866534 198.126287 
L 258.264261 260.014522 
L 265.661989 304.855699 
L 273.059716 304.855699 
L 280.457443 304.114522 
L 287.85517 272.98511 
L 295.252898 253.343934 
L 302.650625 288.920404 
L 310.048352 308.190993 
L 324.843807 300.038051 
L 332.241534 302.632169 
L 339.639261 305.967463 
L 347.036989 303.002757 
L 354.434716 303.002757 
L 361.832443 304.114522 
L 369.23017 291.88511 
L 376.627898 304.48511 
L 384.025625 305.967463 
L 391.423352 300.40864 
L 398.82108 303.002757 
L 406.218807 302.261581 
L 413.616534 304.114522 
L 421.014261 304.48511 
L 428.411989 302.261581 
L 435.809716 303.002757 
L 443.207443 303.373346 
L 450.60517 305.596875 
L 458.002898 302.632169 
L 465.400625 301.520404 
L 472.798352 304.114522 
L 480.19608 303.002757 
L 487.593807 302.261581 
L 494.991534 249.267463 
L 502.389261 298.18511 
L 509.786989 301.890993 
L 517.184716 302.261581 
L 524.582443 299.667463 
L 531.98017 301.890993 
L 539.377898 298.555699 
L 546.775625 299.667463 
L 554.173352 301.520404 
L 568.968807 299.296875 
L 576.366534 296.702757 
L 583.764261 296.332169 
L 591.161989 297.443934 
L 598.559716 301.520404 
L 605.957443 297.814522 
L 620.752898 298.555699 
L 628.150625 300.038051 
L 635.548352 298.18511 
L 642.94608 300.779228 
L 650.343807 295.961581 
L 657.741534 298.555699 
L 665.139261 295.961581 
L 672.536989 298.18511 
L 679.934716 299.667463 
L 687.332443 297.443934 
L 694.73017 298.926287 
L 702.127898 301.149816 
L 709.525625 300.038051 
L 716.923352 300.779228 
L 724.32108 298.18511 
L 731.718807 297.073346 
L 739.116534 299.667463 
L 746.514261 299.296875 
L 753.911989 299.667463 
L 761.309716 295.961581 
L 768.707443 297.443934 
L 776.10517 300.40864 
L 783.502898 300.779228 
L 790.900625 296.332169 
L 798.298352 298.926287 
L 805.69608 299.667463 
L 813.093807 297.073346 
L 820.491534 300.779228 
L 827.889261 295.961581 
L 835.286989 300.779228 
L 842.684716 298.18511 
L 850.082443 300.40864 
L 857.48017 300.779228 
L 864.877898 298.555699 
L 872.275625 298.18511 
L 887.07108 298.926287 
L 894.468807 300.40864 
L 901.866534 295.590993 
L 909.264261 300.038051 
L 916.661989 297.443934 
L 924.059716 299.667463 
L 931.457443 266.68511 
L 938.85517 280.026287 
L 946.252898 251.120404 
L 953.650625 268.90864 
L 961.048352 277.432169 
L 968.44608 297.443934 
L 975.843807 292.255699 
L 983.241534 295.961581 
L 990.639261 297.443934 
L 998.036989 295.961581 
L 998.036989 295.961581 
" style="fill:none;stroke:#1f77b4;stroke-linecap:square;stroke-width:2;"/>
   </g>
   <g id="patch_3">
    <path d="M 58.525625 406.396875 
L 58.525625 28.396875 
" style="fill:none;stroke:#000000;stroke-linecap:square;stroke-linejoin:miter;stroke-width:0.8;"/>
   </g>
   <g id="patch_4">
    <path d="M 946.252898 406.396875 
L 946.252898 28.396875 
" style="fill:none;stroke:#000000;stroke-linecap:square;stroke-linejoin:miter;stroke-width:0.8;"/>
   </g>
   <g id="patch_5">
    <path d="M 58.525625 406.396875 
L 946.252898 406.396875 
" style="fill:none;stroke:#000000;stroke-linecap:square;stroke-linejoin:miter;stroke-width:0.8;"/>
   </g>
   <g id="patch_6">
    <path d="M 58.525625 28.396875 
L 946.252898 28.396875 
" style="fill:none;stroke:#000000;stroke-linecap:square;stroke-linejoin:miter;stroke-width:0.8;"/>
   </g>
   <g id="text_14">
    <!-- CPU -->
    <g transform="translate(482.058011 22.396875)scale(0.2 -0.2)">
     <defs>
      <path d="M 4122 4306 
L 4122 3641 
Q 3803 3938 3442 4084 
Q 3081 4231 2675 4231 
Q 1875 4231 1450 3742 
Q 1025 3253 1025 2328 
Q 1025 1406 1450 917 
Q 1875 428 2675 428 
Q 3081 428 3442 575 
Q 3803 722 4122 1019 
L 4122 359 
Q 3791 134 3420 21 
Q 3050 -91 2638 -91 
Q 1578 -91 968 557 
Q 359 1206 359 2328 
Q 359 3453 968 4101 
Q 1578 4750 2638 4750 
Q 3056 4750 3426 4639 
Q 3797 4528 4122 4306 
z
" id="DejaVuSans-43" transform="scale(0.015625)"/>
      <path d="M 1259 4147 
L 1259 2394 
L 2053 2394 
Q 2494 2394 2734 2622 
Q 2975 2850 2975 3272 
Q 2975 3691 2734 3919 
Q 2494 4147 2053 4147 
L 1259 4147 
z
M 628 4666 
L 2053 4666 
Q 2838 4666 3239 4311 
Q 3641 3956 3641 3272 
Q 3641 2581 3239 2228 
Q 2838 1875 2053 1875 
L 1259 1875 
L 1259 0 
L 628 0 
L 628 4666 
z
" id="DejaVuSans-50" transform="scale(0.015625)"/>
     </defs>
     <use xlink:href="#DejaVuSans-43"/>
     <use x="69.824219" xlink:href="#DejaVuSans-50"/>
     <use x="130.126953" xlink:href="#DejaVuSans-55"/>
    </g>
   </g>
  </g>
  <g id="axes_2">
   <g id="patch_7">
    <path d="M 1123.798352 406.396875 
L 2011.525625 406.396875 
L 2011.525625 28.396875 
L 1123.798352 28.396875 
z
" style="fill:#ffffff;"/>
   </g>
   <g id="matplotlib.axis_3">
    <g id="xtick_7">
     <g id="line2d_14">
      <g>
       <use style="stroke:#000000;stroke-width:0.8;" x="1271.752898" xlink:href="#m36c6976079" y="406.396875"/>
      </g>
     </g>
     <g id="text_15">
      <!-- 10 -->
      <g transform="translate(1264.117898 422.515)scale(0.12 -0.12)">
       <use xlink:href="#DejaVuSans-31"/>
       <use x="63.623047" xlink:href="#DejaVuSans-30"/>
      </g>
     </g>
    </g>
    <g id="xtick_8">
     <g id="line2d_15">
      <g>
       <use style="stroke:#000000;stroke-width:0.8;" x="1419.707443" xlink:href="#m36c6976079" y="406.396875"/>
      </g>
     </g>
     <g id="text_16">
      <!-- 20 -->
      <g transform="translate(1412.072443 422.515)scale(0.12 -0.12)">
       <use xlink:href="#DejaVuSans-32"/>
       <use x="63.623047" xlink:href="#DejaVuSans-30"/>
      </g>
     </g>
    </g>
    <g id="xtick_9">
     <g id="line2d_16">
      <g>
       <use style="stroke:#000000;stroke-width:0.8;" x="1567.661989" xlink:href="#m36c6976079" y="406.396875"/>
      </g>
     </g>
     <g id="text_17">
      <!-- 30 -->
      <g transform="translate(1560.026989 422.515)scale(0.12 -0.12)">
       <use xlink:href="#DejaVuSans-33"/>
       <use x="63.623047" xlink:href="#DejaVuSans-30"/>
      </g>
     </g>
    </g>
    <g id="xtick_10">
     <g id="line2d_17">
      <g>
       <use style="stroke:#000000;stroke-width:0.8;" x="1715.616534" xlink:href="#m36c6976079" y="406.396875"/>
      </g>
     </g>
     <g id="text_18">
      <!-- 40 -->
      <g transform="translate(1707.981534 422.515)scale(0.12 -0.12)">
       <use xlink:href="#DejaVuSans-34"/>
       <use x="63.623047" xlink:href="#DejaVuSans-30"/>
      </g>
     </g>
    </g>
    <g id="xtick_11">
     <g id="line2d_18">
      <g>
       <use style="stroke:#000000;stroke-width:0.8;" x="1863.57108" xlink:href="#m36c6976079" y="406.396875"/>
      </g>
     </g>
     <g id="text_19">
      <!-- 50 -->
      <g transform="translate(1855.93608 422.515)scale(0.12 -0.12)">
       <use xlink:href="#DejaVuSans-35"/>
       <use x="63.623047" xlink:href="#DejaVuSans-30"/>
      </g>
     </g>
    </g>
    <g id="xtick_12">
     <g id="line2d_19">
      <g>
       <use style="stroke:#000000;stroke-width:0.8;" x="2011.525625" xlink:href="#m36c6976079" y="406.396875"/>
      </g>
     </g>
     <g id="text_20">
      <!-- 60 -->
      <g transform="translate(2003.890625 422.515)scale(0.12 -0.12)">
       <use xlink:href="#DejaVuSans-36"/>
       <use x="63.623047" xlink:href="#DejaVuSans-30"/>
      </g>
     </g>
    </g>
   </g>
   <g id="matplotlib.axis_4">
    <g id="ytick_7">
     <g id="line2d_20">
      <g>
       <use style="stroke:#000000;stroke-width:0.8;" x="1123.798352" xlink:href="#m2d4ceeaf04" y="394.94233"/>
      </g>
     </g>
     <g id="text_21">
      <!-- 0 -->
      <g transform="translate(1109.163352 399.501392)scale(0.12 -0.12)">
       <use xlink:href="#DejaVuSans-30"/>
      </g>
     </g>
    </g>
    <g id="ytick_8">
     <g id="line2d_21">
      <g>
       <use style="stroke:#000000;stroke-width:0.8;" x="1123.798352" xlink:href="#m2d4ceeaf04" y="337.669602"/>
      </g>
     </g>
     <g id="text_22">
      <!-- 5 -->
      <g transform="translate(1109.163352 342.228665)scale(0.12 -0.12)">
       <use xlink:href="#DejaVuSans-35"/>
      </g>
     </g>
    </g>
    <g id="ytick_9">
     <g id="line2d_22">
      <g>
       <use style="stroke:#000000;stroke-width:0.8;" x="1123.798352" xlink:href="#m2d4ceeaf04" y="280.396875"/>
      </g>
     </g>
     <g id="text_23">
      <!-- 10 -->
      <g transform="translate(1101.528352 284.955937)scale(0.12 -0.12)">
       <use xlink:href="#DejaVuSans-31"/>
       <use x="63.623047" xlink:href="#DejaVuSans-30"/>
      </g>
     </g>
    </g>
    <g id="ytick_10">
     <g id="line2d_23">
      <g>
       <use style="stroke:#000000;stroke-width:0.8;" x="1123.798352" xlink:href="#m2d4ceeaf04" y="223.124148"/>
      </g>
     </g>
     <g id="text_24">
      <!-- 15 -->
      <g transform="translate(1101.528352 227.68321)scale(0.12 -0.12)">
       <use xlink:href="#DejaVuSans-31"/>
       <use x="63.623047" xlink:href="#DejaVuSans-35"/>
      </g>
     </g>
    </g>
    <g id="ytick_11">
     <g id="line2d_24">
      <g>
       <use style="stroke:#000000;stroke-width:0.8;" x="1123.798352" xlink:href="#m2d4ceeaf04" y="165.85142"/>
      </g>
     </g>
     <g id="text_25">
      <!-- 20 -->
      <g transform="translate(1101.528352 170.410483)scale(0.12 -0.12)">
       <use xlink:href="#DejaVuSans-32"/>
       <use x="63.623047" xlink:href="#DejaVuSans-30"/>
      </g>
     </g>
    </g>
    <g id="ytick_12">
     <g id="line2d_25">
      <g>
       <use style="stroke:#000000;stroke-width:0.8;" x="1123.798352" xlink:href="#m2d4ceeaf04" y="108.578693"/>
      </g>
     </g>
     <g id="text_26">
      <!-- 25 -->
      <g transform="translate(1101.528352 113.137756)scale(0.12 -0.12)">
       <use xlink:href="#DejaVuSans-32"/>
       <use x="63.623047" xlink:href="#DejaVuSans-35"/>
      </g>
     </g>
    </g>
    <g id="ytick_13">
     <g id="line2d_26">
      <g>
       <use style="stroke:#000000;stroke-width:0.8;" x="1123.798352" xlink:href="#m2d4ceeaf04" y="51.305966"/>
      </g>
     </g>
     <g id="text_27">
      <!-- 30 -->
      <g transform="translate(1101.528352 55.865028)scale(0.12 -0.12)">
       <use xlink:href="#DejaVuSans-33"/>
       <use x="63.623047" xlink:href="#DejaVuSans-30"/>
      </g>
     </g>
    </g>
   </g>
   <g id="line2d_27">
    <path clip-path="url(#pc576c25527)" d="M 1123.798352 155.54233 
L 1160.786989 155.54233 
L 1168.184716 154.396875 
L 1175.582443 152.105966 
L 1205.173352 147.524148 
L 1212.57108 157.833239 
L 1227.366534 153.25142 
L 1256.957443 153.25142 
L 1264.35517 152.105966 
L 1271.752898 148.669602 
L 1279.150625 142.94233 
L 1286.548352 144.087784 
L 1293.94608 147.524148 
L 1301.343807 147.524148 
L 1308.741534 145.233239 
L 1316.139261 147.524148 
L 1323.536989 147.524148 
L 1330.934716 146.378693 
L 1338.332443 146.378693 
L 1345.73017 147.524148 
L 1353.127898 149.815057 
L 1360.525625 150.960511 
L 1367.923352 149.815057 
L 1404.911989 149.815057 
L 1412.309716 148.669602 
L 1419.707443 148.669602 
L 1427.10517 147.524148 
L 1434.502898 150.960511 
L 1486.286989 150.960511 
L 1493.684716 152.105966 
L 1523.275625 152.105966 
L 1530.673352 150.960511 
L 1538.07108 150.960511 
L 1545.468807 148.669602 
L 1552.866534 150.960511 
L 1560.264261 156.687784 
L 1567.661989 146.378693 
L 1575.059716 146.378693 
L 1582.457443 147.524148 
L 1656.434716 147.524148 
L 1663.832443 148.669602 
L 1671.23017 147.524148 
L 1700.82108 147.524148 
L 1708.218807 146.378693 
L 1767.400625 146.378693 
L 1774.798352 144.087784 
L 1782.19608 146.378693 
L 1811.786989 146.378693 
L 1819.184716 147.524148 
L 1826.582443 146.378693 
L 1833.98017 146.378693 
L 1848.775625 148.669602 
L 1856.173352 146.378693 
L 1915.35517 146.378693 
L 1922.752898 147.524148 
L 1930.150625 146.378693 
L 1944.94608 146.378693 
L 1952.343807 147.524148 
L 1959.741534 147.524148 
L 1967.139261 146.378693 
L 1989.332443 146.378693 
L 1996.73017 157.833239 
L 2004.127898 158.978693 
L 2011.525625 153.25142 
L 2018.923352 157.833239 
L 2026.32108 149.815057 
L 2027.360625 149.815057 
L 2027.360625 149.815057 
" style="fill:none;stroke:#1f77b4;stroke-linecap:square;stroke-width:3;"/>
   </g>
   <g id="line2d_28">
    <path clip-path="url(#pc576c25527)" d="M 1123.798352 394.94233 
L 2027.360625 394.94233 
L 2027.360625 394.94233 
" style="fill:none;stroke:#ff7f0e;stroke-linecap:square;stroke-width:3;"/>
   </g>
   <g id="patch_8">
    <path d="M 1123.798352 406.396875 
L 1123.798352 28.396875 
" style="fill:none;stroke:#000000;stroke-linecap:square;stroke-linejoin:miter;stroke-width:0.8;"/>
   </g>
   <g id="patch_9">
    <path d="M 2011.525625 406.396875 
L 2011.525625 28.396875 
" style="fill:none;stroke:#000000;stroke-linecap:square;stroke-linejoin:miter;stroke-width:0.8;"/>
   </g>
   <g id="patch_10">
    <path d="M 1123.798352 406.396875 
L 2011.525625 406.396875 
" style="fill:none;stroke:#000000;stroke-linecap:square;stroke-linejoin:miter;stroke-width:0.8;"/>
   </g>
   <g id="patch_11">
    <path d="M 1123.798352 28.396875 
L 2011.525625 28.396875 
" style="fill:none;stroke:#000000;stroke-linecap:square;stroke-linejoin:miter;stroke-width:0.8;"/>
   </g>
   <g id="text_28">
    <!-- Memory -->
    <g transform="translate(1526.991676 22.396875)scale(0.2 -0.2)">
     <defs>
      <path d="M 628 4666 
L 1569 4666 
L 2759 1491 
L 3956 4666 
L 4897 4666 
L 4897 0 
L 4281 0 
L 4281 4097 
L 3078 897 
L 2444 897 
L 1241 4097 
L 1241 0 
L 628 0 
L 628 4666 
z
" id="DejaVuSans-4d" transform="scale(0.015625)"/>
      <path d="M 3328 2828 
Q 3544 3216 3844 3400 
Q 4144 3584 4550 3584 
Q 5097 3584 5394 3201 
Q 5691 2819 5691 2113 
L 5691 0 
L 5113 0 
L 5113 2094 
Q 5113 2597 4934 2840 
Q 4756 3084 4391 3084 
Q 3944 3084 3684 2787 
Q 3425 2491 3425 1978 
L 3425 0 
L 2847 0 
L 2847 2094 
Q 2847 2600 2669 2842 
Q 2491 3084 2119 3084 
Q 1678 3084 1418 2786 
Q 1159 2488 1159 1978 
L 1159 0 
L 581 0 
L 581 3500 
L 1159 3500 
L 1159 2956 
Q 1356 3278 1631 3431 
Q 1906 3584 2284 3584 
Q 2666 3584 2933 3390 
Q 3200 3197 3328 2828 
z
" id="DejaVuSans-6d" transform="scale(0.015625)"/>
      <path d="M 1959 3097 
Q 1497 3097 1228 2736 
Q 959 2375 959 1747 
Q 959 1119 1226 758 
Q 1494 397 1959 397 
Q 2419 397 2687 759 
Q 2956 1122 2956 1747 
Q 2956 2369 2687 2733 
Q 2419 3097 1959 3097 
z
M 1959 3584 
Q 2709 3584 3137 3096 
Q 3566 2609 3566 1747 
Q 3566 888 3137 398 
Q 2709 -91 1959 -91 
Q 1206 -91 779 398 
Q 353 888 353 1747 
Q 353 2609 779 3096 
Q 1206 3584 1959 3584 
z
" id="DejaVuSans-6f" transform="scale(0.015625)"/>
      <path d="M 2631 2963 
Q 2534 3019 2420 3045 
Q 2306 3072 2169 3072 
Q 1681 3072 1420 2755 
Q 1159 2438 1159 1844 
L 1159 0 
L 581 0 
L 581 3500 
L 1159 3500 
L 1159 2956 
Q 1341 3275 1631 3429 
Q 1922 3584 2338 3584 
Q 2397 3584 2469 3576 
Q 2541 3569 2628 3553 
L 2631 2963 
z
" id="DejaVuSans-72" transform="scale(0.015625)"/>
      <path d="M 2059 -325 
Q 1816 -950 1584 -1140 
Q 1353 -1331 966 -1331 
L 506 -1331 
L 506 -850 
L 844 -850 
Q 1081 -850 1212 -737 
Q 1344 -625 1503 -206 
L 1606 56 
L 191 3500 
L 800 3500 
L 1894 763 
L 2988 3500 
L 3597 3500 
L 2059 -325 
z
" id="DejaVuSans-79" transform="scale(0.015625)"/>
     </defs>
     <use xlink:href="#DejaVuSans-4d"/>
     <use x="86.279297" xlink:href="#DejaVuSans-65"/>
     <use x="147.802734" xlink:href="#DejaVuSans-6d"/>
     <use x="245.214844" xlink:href="#DejaVuSans-6f"/>
     <use x="306.396484" xlink:href="#DejaVuSans-72"/>
     <use x="347.509766" xlink:href="#DejaVuSans-79"/>
    </g>
   </g>
   <g id="legend_1">
    <g id="patch_12">
     <path d="M 1912.520937 84.43125 
L 2001.025625 84.43125 
Q 2004.025625 84.43125 2004.025625 81.43125 
L 2004.025625 38.896875 
Q 2004.025625 35.896875 2001.025625 35.896875 
L 1912.520937 35.896875 
Q 1909.520937 35.896875 1909.520937 38.896875 
L 1909.520937 81.43125 
Q 1909.520937 84.43125 1912.520937 84.43125 
z
" style="fill:#ffffff;opacity:0.8;stroke:#cccccc;stroke-linejoin:miter;"/>
    </g>
    <g id="line2d_29">
     <path d="M 1915.520937 48.044531 
L 1945.520937 48.044531 
" style="fill:none;stroke:#1f77b4;stroke-linecap:square;stroke-width:3;"/>
    </g>
    <g id="line2d_30"/>
    <g id="text_29">
     <!-- RAM -->
     <g transform="translate(1957.520937 53.294531)scale(0.15 -0.15)">
      <defs>
       <path d="M 2841 2188 
Q 3044 2119 3236 1894 
Q 3428 1669 3622 1275 
L 4263 0 
L 3584 0 
L 2988 1197 
Q 2756 1666 2539 1819 
Q 2322 1972 1947 1972 
L 1259 1972 
L 1259 0 
L 628 0 
L 628 4666 
L 2053 4666 
Q 2853 4666 3247 4331 
Q 3641 3997 3641 3322 
Q 3641 2881 3436 2590 
Q 3231 2300 2841 2188 
z
M 1259 4147 
L 1259 2491 
L 2053 2491 
Q 2509 2491 2742 2702 
Q 2975 2913 2975 3322 
Q 2975 3731 2742 3939 
Q 2509 4147 2053 4147 
L 1259 4147 
z
" id="DejaVuSans-52" transform="scale(0.015625)"/>
       <path d="M 2188 4044 
L 1331 1722 
L 3047 1722 
L 2188 4044 
z
M 1831 4666 
L 2547 4666 
L 4325 0 
L 3669 0 
L 3244 1197 
L 1141 1197 
L 716 0 
L 50 0 
L 1831 4666 
z
" id="DejaVuSans-41" transform="scale(0.015625)"/>
      </defs>
      <use xlink:href="#DejaVuSans-52"/>
      <use x="65.482422" xlink:href="#DejaVuSans-41"/>
      <use x="133.890625" xlink:href="#DejaVuSans-4d"/>
     </g>
    </g>
    <g id="line2d_31">
     <path d="M 1915.520937 70.061719 
L 1945.520937 70.061719 
" style="fill:none;stroke:#ff7f0e;stroke-linecap:square;stroke-width:3;"/>
    </g>
    <g id="line2d_32"/>
    <g id="text_30">
     <!-- Swap -->
     <g transform="translate(1957.520937 75.311719)scale(0.15 -0.15)">
      <defs>
       <path d="M 3425 4513 
L 3425 3897 
Q 3066 4069 2747 4153 
Q 2428 4238 2131 4238 
Q 1616 4238 1336 4038 
Q 1056 3838 1056 3469 
Q 1056 3159 1242 3001 
Q 1428 2844 1947 2747 
L 2328 2669 
Q 3034 2534 3370 2195 
Q 3706 1856 3706 1288 
Q 3706 609 3251 259 
Q 2797 -91 1919 -91 
Q 1588 -91 1214 -16 
Q 841 59 441 206 
L 441 856 
Q 825 641 1194 531 
Q 1563 422 1919 422 
Q 2459 422 2753 634 
Q 3047 847 3047 1241 
Q 3047 1584 2836 1778 
Q 2625 1972 2144 2069 
L 1759 2144 
Q 1053 2284 737 2584 
Q 422 2884 422 3419 
Q 422 4038 858 4394 
Q 1294 4750 2059 4750 
Q 2388 4750 2728 4690 
Q 3069 4631 3425 4513 
z
" id="DejaVuSans-53" transform="scale(0.015625)"/>
       <path d="M 269 3500 
L 844 3500 
L 1563 769 
L 2278 3500 
L 2956 3500 
L 3675 769 
L 4391 3500 
L 4966 3500 
L 4050 0 
L 3372 0 
L 2619 2869 
L 1863 0 
L 1184 0 
L 269 3500 
z
" id="DejaVuSans-77" transform="scale(0.015625)"/>
       <path d="M 1159 525 
L 1159 -1331 
L 581 -1331 
L 581 3500 
L 1159 3500 
L 1159 2969 
Q 1341 3281 1617 3432 
Q 1894 3584 2278 3584 
Q 2916 3584 3314 3078 
Q 3713 2572 3713 1747 
Q 3713 922 3314 415 
Q 2916 -91 2278 -91 
Q 1894 -91 1617 61 
Q 1341 213 1159 525 
z
M 3116 1747 
Q 3116 2381 2855 2742 
Q 2594 3103 2138 3103 
Q 1681 3103 1420 2742 
Q 1159 2381 1159 1747 
Q 1159 1113 1420 752 
Q 1681 391 2138 391 
Q 2594 391 2855 752 
Q 3116 1113 3116 1747 
z
" id="DejaVuSans-70" transform="scale(0.015625)"/>
      </defs>
      <use xlink:href="#DejaVuSans-53"/>
      <use x="63.476562" xlink:href="#DejaVuSans-77"/>
      <use x="145.263672" xlink:href="#DejaVuSans-61"/>
      <use x="206.542969" xlink:href="#DejaVuSans-70"/>
     </g>
    </g>
   </g>
  </g>
  <g id="axes_3">
   <g id="patch_13">
    <path d="M 58.525625 859.996875 
L 946.252898 859.996875 
L 946.252898 481.996875 
L 58.525625 481.996875 
z
" style="fill:#ffffff;"/>
   </g>
   <g id="matplotlib.axis_5">
    <g id="xtick_13">
     <g id="line2d_33">
      <g>
       <use style="stroke:#000000;stroke-width:0.8;" x="206.48017" xlink:href="#m36c6976079" y="859.996875"/>
      </g>
     </g>
     <g id="text_31">
      <!-- 10 -->
      <g transform="translate(198.84517 876.115)scale(0.12 -0.12)">
       <use xlink:href="#DejaVuSans-31"/>
       <use x="63.623047" xlink:href="#DejaVuSans-30"/>
      </g>
     </g>
    </g>
    <g id="xtick_14">
     <g id="line2d_34">
      <g>
       <use style="stroke:#000000;stroke-width:0.8;" x="354.434716" xlink:href="#m36c6976079" y="859.996875"/>
      </g>
     </g>
     <g id="text_32">
      <!-- 20 -->
      <g transform="translate(346.799716 876.115)scale(0.12 -0.12)">
       <use xlink:href="#DejaVuSans-32"/>
       <use x="63.623047" xlink:href="#DejaVuSans-30"/>
      </g>
     </g>
    </g>
    <g id="xtick_15">
     <g id="line2d_35">
      <g>
       <use style="stroke:#000000;stroke-width:0.8;" x="502.389261" xlink:href="#m36c6976079" y="859.996875"/>
      </g>
     </g>
     <g id="text_33">
      <!-- 30 -->
      <g transform="translate(494.754261 876.115)scale(0.12 -0.12)">
       <use xlink:href="#DejaVuSans-33"/>
       <use x="63.623047" xlink:href="#DejaVuSans-30"/>
      </g>
     </g>
    </g>
    <g id="xtick_16">
     <g id="line2d_36">
      <g>
       <use style="stroke:#000000;stroke-width:0.8;" x="650.343807" xlink:href="#m36c6976079" y="859.996875"/>
      </g>
     </g>
     <g id="text_34">
      <!-- 40 -->
      <g transform="translate(642.708807 876.115)scale(0.12 -0.12)">
       <use xlink:href="#DejaVuSans-34"/>
       <use x="63.623047" xlink:href="#DejaVuSans-30"/>
      </g>
     </g>
    </g>
    <g id="xtick_17">
     <g id="line2d_37">
      <g>
       <use style="stroke:#000000;stroke-width:0.8;" x="798.298352" xlink:href="#m36c6976079" y="859.996875"/>
      </g>
     </g>
     <g id="text_35">
      <!-- 50 -->
      <g transform="translate(790.663352 876.115)scale(0.12 -0.12)">
       <use xlink:href="#DejaVuSans-35"/>
       <use x="63.623047" xlink:href="#DejaVuSans-30"/>
      </g>
     </g>
    </g>
    <g id="xtick_18">
     <g id="line2d_38">
      <g>
       <use style="stroke:#000000;stroke-width:0.8;" x="946.252898" xlink:href="#m36c6976079" y="859.996875"/>
      </g>
     </g>
     <g id="text_36">
      <!-- 60 -->
      <g transform="translate(938.617898 876.115)scale(0.12 -0.12)">
       <use xlink:href="#DejaVuSans-36"/>
       <use x="63.623047" xlink:href="#DejaVuSans-30"/>
      </g>
     </g>
    </g>
    <g id="text_37">
     <!-- Time (s) -->
     <g transform="translate(465.79723 896.287812)scale(0.18 -0.18)">
      <defs>
       <path d="M -19 4666 
L 3928 4666 
L 3928 4134 
L 2272 4134 
L 2272 0 
L 1638 0 
L 1638 4134 
L -19 4134 
L -19 4666 
z
" id="DejaVuSans-54" transform="scale(0.015625)"/>
       <path d="M 603 3500 
L 1178 3500 
L 1178 0 
L 603 0 
L 603 3500 
z
M 603 4863 
L 1178 4863 
L 1178 4134 
L 603 4134 
L 603 4863 
z
" id="DejaVuSans-69" transform="scale(0.015625)"/>
      </defs>
      <use xlink:href="#DejaVuSans-54"/>
      <use x="57.958984" xlink:href="#DejaVuSans-69"/>
      <use x="85.742188" xlink:href="#DejaVuSans-6d"/>
      <use x="183.154297" xlink:href="#DejaVuSans-65"/>
      <use x="244.677734" xlink:href="#DejaVuSans-20"/>
      <use x="276.464844" xlink:href="#DejaVuSans-28"/>
      <use x="315.478516" xlink:href="#DejaVuSans-73"/>
      <use x="367.578125" xlink:href="#DejaVuSans-29"/>
     </g>
    </g>
   </g>
   <g id="matplotlib.axis_6">
    <g id="ytick_14">
     <g id="line2d_39">
      <g>
       <use style="stroke:#000000;stroke-width:0.8;" x="58.525625" xlink:href="#m2d4ceeaf04" y="859.996875"/>
      </g>
     </g>
     <g id="text_38">
      <!-- 58 -->
      <g transform="translate(36.255625 864.555937)scale(0.12 -0.12)">
       <use xlink:href="#DejaVuSans-35"/>
       <use x="63.623047" xlink:href="#DejaVuSans-38"/>
      </g>
     </g>
    </g>
    <g id="ytick_15">
     <g id="line2d_40">
      <g>
       <use style="stroke:#000000;stroke-width:0.8;" x="58.525625" xlink:href="#m2d4ceeaf04" y="812.746875"/>
      </g>
     </g>
     <g id="text_39">
      <!-- 59 -->
      <g transform="translate(36.255625 817.305937)scale(0.12 -0.12)">
       <defs>
        <path d="M 703 97 
L 703 672 
Q 941 559 1184 500 
Q 1428 441 1663 441 
Q 2288 441 2617 861 
Q 2947 1281 2994 2138 
Q 2813 1869 2534 1725 
Q 2256 1581 1919 1581 
Q 1219 1581 811 2004 
Q 403 2428 403 3163 
Q 403 3881 828 4315 
Q 1253 4750 1959 4750 
Q 2769 4750 3195 4129 
Q 3622 3509 3622 2328 
Q 3622 1225 3098 567 
Q 2575 -91 1691 -91 
Q 1453 -91 1209 -44 
Q 966 3 703 97 
z
M 1959 2075 
Q 2384 2075 2632 2365 
Q 2881 2656 2881 3163 
Q 2881 3666 2632 3958 
Q 2384 4250 1959 4250 
Q 1534 4250 1286 3958 
Q 1038 3666 1038 3163 
Q 1038 2656 1286 2365 
Q 1534 2075 1959 2075 
z
" id="DejaVuSans-39" transform="scale(0.015625)"/>
       </defs>
       <use xlink:href="#DejaVuSans-35"/>
       <use x="63.623047" xlink:href="#DejaVuSans-39"/>
      </g>
     </g>
    </g>
    <g id="ytick_16">
     <g id="line2d_41">
      <g>
       <use style="stroke:#000000;stroke-width:0.8;" x="58.525625" xlink:href="#m2d4ceeaf04" y="765.496875"/>
      </g>
     </g>
     <g id="text_40">
      <!-- 60 -->
      <g transform="translate(36.255625 770.055937)scale(0.12 -0.12)">
       <use xlink:href="#DejaVuSans-36"/>
       <use x="63.623047" xlink:href="#DejaVuSans-30"/>
      </g>
     </g>
    </g>
    <g id="ytick_17">
     <g id="line2d_42">
      <g>
       <use style="stroke:#000000;stroke-width:0.8;" x="58.525625" xlink:href="#m2d4ceeaf04" y="718.246875"/>
      </g>
     </g>
     <g id="text_41">
      <!-- 61 -->
      <g transform="translate(36.255625 722.805937)scale(0.12 -0.12)">
       <use xlink:href="#DejaVuSans-36"/>
       <use x="63.623047" xlink:href="#DejaVuSans-31"/>
      </g>
     </g>
    </g>
    <g id="ytick_18">
     <g id="line2d_43">
      <g>
       <use style="stroke:#000000;stroke-width:0.8;" x="58.525625" xlink:href="#m2d4ceeaf04" y="670.996875"/>
      </g>
     </g>
     <g id="text_42">
      <!-- 62 -->
      <g transform="translate(36.255625 675.555937)scale(0.12 -0.12)">
       <use xlink:href="#DejaVuSans-36"/>
       <use x="63.623047" xlink:href="#DejaVuSans-32"/>
      </g>
     </g>
    </g>
    <g id="ytick_19">
     <g id="line2d_44">
      <g>
       <use style="stroke:#000000;stroke-width:0.8;" x="58.525625" xlink:href="#m2d4ceeaf04" y="623.746875"/>
      </g>
     </g>
     <g id="text_43">
      <!-- 63 -->
      <g transform="translate(36.255625 628.305937)scale(0.12 -0.12)">
       <use xlink:href="#DejaVuSans-36"/>
       <use x="63.623047" xlink:href="#DejaVuSans-33"/>
      </g>
     </g>
    </g>
    <g id="ytick_20">
     <g id="line2d_45">
      <g>
       <use style="stroke:#000000;stroke-width:0.8;" x="58.525625" xlink:href="#m2d4ceeaf04" y="576.496875"/>
      </g>
     </g>
     <g id="text_44">
      <!-- 64 -->
      <g transform="translate(36.255625 581.055937)scale(0.12 -0.12)">
       <use xlink:href="#DejaVuSans-36"/>
       <use x="63.623047" xlink:href="#DejaVuSans-34"/>
      </g>
     </g>
    </g>
    <g id="ytick_21">
     <g id="line2d_46">
      <g>
       <use style="stroke:#000000;stroke-width:0.8;" x="58.525625" xlink:href="#m2d4ceeaf04" y="529.246875"/>
      </g>
     </g>
     <g id="text_45">
      <!-- 65 -->
      <g transform="translate(36.255625 533.805937)scale(0.12 -0.12)">
       <use xlink:href="#DejaVuSans-36"/>
       <use x="63.623047" xlink:href="#DejaVuSans-35"/>
      </g>
     </g>
    </g>
    <g id="ytick_22">
     <g id="line2d_47">
      <g>
       <use style="stroke:#000000;stroke-width:0.8;" x="58.525625" xlink:href="#m2d4ceeaf04" y="481.996875"/>
      </g>
     </g>
     <g id="text_46">
      <!-- 66 -->
      <g transform="translate(36.255625 486.555937)scale(0.12 -0.12)">
       <use xlink:href="#DejaVuSans-36"/>
       <use x="63.623047" xlink:href="#DejaVuSans-36"/>
      </g>
     </g>
    </g>
    <g id="text_47">
     <!-- Usage (%) -->
     <g transform="translate(28.512187 717.473437)rotate(-90)scale(0.18 -0.18)">
      <use xlink:href="#DejaVuSans-55"/>
      <use x="73.193359" xlink:href="#DejaVuSans-73"/>
      <use x="125.292969" xlink:href="#DejaVuSans-61"/>
      <use x="186.572266" xlink:href="#DejaVuSans-67"/>
      <use x="250.048828" xlink:href="#DejaVuSans-65"/>
      <use x="311.572266" xlink:href="#DejaVuSans-20"/>
      <use x="343.359375" xlink:href="#DejaVuSans-28"/>
      <use x="382.373047" xlink:href="#DejaVuSans-25"/>
      <use x="477.392578" xlink:href="#DejaVuSans-29"/>
     </g>
    </g>
   </g>
   <g id="line2d_48">
    <path clip-path="url(#p50aa5622d7)" d="M 58.525625 670.996875 
L 65.923352 666.271875 
L 998.036989 666.271875 
L 998.036989 666.271875 
" style="fill:none;stroke:#1f77b4;stroke-linecap:square;stroke-width:3;"/>
   </g>
   <g id="patch_14">
    <path d="M 58.525625 859.996875 
L 58.525625 481.996875 
" style="fill:none;stroke:#000000;stroke-linecap:square;stroke-linejoin:miter;stroke-width:0.8;"/>
   </g>
   <g id="patch_15">
    <path d="M 946.252898 859.996875 
L 946.252898 481.996875 
" style="fill:none;stroke:#000000;stroke-linecap:square;stroke-linejoin:miter;stroke-width:0.8;"/>
   </g>
   <g id="patch_16">
    <path d="M 58.525625 859.996875 
L 946.252898 859.996875 
" style="fill:none;stroke:#000000;stroke-linecap:square;stroke-linejoin:miter;stroke-width:0.8;"/>
   </g>
   <g id="patch_17">
    <path d="M 58.525625 481.996875 
L 946.252898 481.996875 
" style="fill:none;stroke:#000000;stroke-linecap:square;stroke-linejoin:miter;stroke-width:0.8;"/>
   </g>
   <g id="text_48">
    <!-- Disk usage -->
    <g transform="translate(447.556449 475.996875)scale(0.2 -0.2)">
     <defs>
      <path d="M 1259 4147 
L 1259 519 
L 2022 519 
Q 2988 519 3436 956 
Q 3884 1394 3884 2338 
Q 3884 3275 3436 3711 
Q 2988 4147 2022 4147 
L 1259 4147 
z
M 628 4666 
L 1925 4666 
Q 3281 4666 3915 4102 
Q 4550 3538 4550 2338 
Q 4550 1131 3912 565 
Q 3275 0 1925 0 
L 628 0 
L 628 4666 
z
" id="DejaVuSans-44" transform="scale(0.015625)"/>
      <path d="M 581 4863 
L 1159 4863 
L 1159 1991 
L 2875 3500 
L 3609 3500 
L 1753 1863 
L 3688 0 
L 2938 0 
L 1159 1709 
L 1159 0 
L 581 0 
L 581 4863 
z
" id="DejaVuSans-6b" transform="scale(0.015625)"/>
      <path d="M 544 1381 
L 544 3500 
L 1119 3500 
L 1119 1403 
Q 1119 906 1312 657 
Q 1506 409 1894 409 
Q 2359 409 2629 706 
Q 2900 1003 2900 1516 
L 2900 3500 
L 3475 3500 
L 3475 0 
L 2900 0 
L 2900 538 
Q 2691 219 2414 64 
Q 2138 -91 1772 -91 
Q 1169 -91 856 284 
Q 544 659 544 1381 
z
M 1991 3584 
L 1991 3584 
z
" id="DejaVuSans-75" transform="scale(0.015625)"/>
     </defs>
     <use xlink:href="#DejaVuSans-44"/>
     <use x="77.001953" xlink:href="#DejaVuSans-69"/>
     <use x="104.785156" xlink:href="#DejaVuSans-73"/>
     <use x="156.884766" xlink:href="#DejaVuSans-6b"/>
     <use x="214.794922" xlink:href="#DejaVuSans-20"/>
     <use x="246.582031" xlink:href="#DejaVuSans-75"/>
     <use x="309.960938" xlink:href="#DejaVuSans-73"/>
     <use x="362.060547" xlink:href="#DejaVuSans-61"/>
     <use x="423.339844" xlink:href="#DejaVuSans-67"/>
     <use x="486.816406" xlink:href="#DejaVuSans-65"/>
    </g>
   </g>
  </g>
  <g id="axes_4">
   <g id="patch_18">
    <path d="M 1123.798352 859.996875 
L 2011.525625 859.996875 
L 2011.525625 481.996875 
L 1123.798352 481.996875 
z
" style="fill:#ffffff;"/>
   </g>
   <g id="matplotlib.axis_7">
    <g id="xtick_19">
     <g id="line2d_49">
      <g>
       <use style="stroke:#000000;stroke-width:0.8;" x="1271.752898" xlink:href="#m36c6976079" y="859.996875"/>
      </g>
     </g>
     <g id="text_49">
      <!-- 10 -->
      <g transform="translate(1264.117898 876.115)scale(0.12 -0.12)">
       <use xlink:href="#DejaVuSans-31"/>
       <use x="63.623047" xlink:href="#DejaVuSans-30"/>
      </g>
     </g>
    </g>
    <g id="xtick_20">
     <g id="line2d_50">
      <g>
       <use style="stroke:#000000;stroke-width:0.8;" x="1419.707443" xlink:href="#m36c6976079" y="859.996875"/>
      </g>
     </g>
     <g id="text_50">
      <!-- 20 -->
      <g transform="translate(1412.072443 876.115)scale(0.12 -0.12)">
       <use xlink:href="#DejaVuSans-32"/>
       <use x="63.623047" xlink:href="#DejaVuSans-30"/>
      </g>
     </g>
    </g>
    <g id="xtick_21">
     <g id="line2d_51">
      <g>
       <use style="stroke:#000000;stroke-width:0.8;" x="1567.661989" xlink:href="#m36c6976079" y="859.996875"/>
      </g>
     </g>
     <g id="text_51">
      <!-- 30 -->
      <g transform="translate(1560.026989 876.115)scale(0.12 -0.12)">
       <use xlink:href="#DejaVuSans-33"/>
       <use x="63.623047" xlink:href="#DejaVuSans-30"/>
      </g>
     </g>
    </g>
    <g id="xtick_22">
     <g id="line2d_52">
      <g>
       <use style="stroke:#000000;stroke-width:0.8;" x="1715.616534" xlink:href="#m36c6976079" y="859.996875"/>
      </g>
     </g>
     <g id="text_52">
      <!-- 40 -->
      <g transform="translate(1707.981534 876.115)scale(0.12 -0.12)">
       <use xlink:href="#DejaVuSans-34"/>
       <use x="63.623047" xlink:href="#DejaVuSans-30"/>
      </g>
     </g>
    </g>
    <g id="xtick_23">
     <g id="line2d_53">
      <g>
       <use style="stroke:#000000;stroke-width:0.8;" x="1863.57108" xlink:href="#m36c6976079" y="859.996875"/>
      </g>
     </g>
     <g id="text_53">
      <!-- 50 -->
      <g transform="translate(1855.93608 876.115)scale(0.12 -0.12)">
       <use xlink:href="#DejaVuSans-35"/>
       <use x="63.623047" xlink:href="#DejaVuSans-30"/>
      </g>
     </g>
    </g>
    <g id="xtick_24">
     <g id="line2d_54">
      <g>
       <use style="stroke:#000000;stroke-width:0.8;" x="2011.525625" xlink:href="#m36c6976079" y="859.996875"/>
      </g>
     </g>
     <g id="text_54">
      <!-- 60 -->
      <g transform="translate(2003.890625 876.115)scale(0.12 -0.12)">
       <use xlink:href="#DejaVuSans-36"/>
       <use x="63.623047" xlink:href="#DejaVuSans-30"/>
      </g>
     </g>
    </g>
    <g id="text_55">
     <!-- Time (s) -->
     <g transform="translate(1531.069957 896.287812)scale(0.18 -0.18)">
      <use xlink:href="#DejaVuSans-54"/>
      <use x="57.958984" xlink:href="#DejaVuSans-69"/>
      <use x="85.742188" xlink:href="#DejaVuSans-6d"/>
      <use x="183.154297" xlink:href="#DejaVuSans-65"/>
      <use x="244.677734" xlink:href="#DejaVuSans-20"/>
      <use x="276.464844" xlink:href="#DejaVuSans-28"/>
      <use x="315.478516" xlink:href="#DejaVuSans-73"/>
      <use x="367.578125" xlink:href="#DejaVuSans-29"/>
     </g>
    </g>
   </g>
   <g id="matplotlib.axis_8">
    <g id="ytick_23">
     <g id="line2d_55">
      <g>
       <use style="stroke:#000000;stroke-width:0.8;" x="1123.798352" xlink:href="#m2d4ceeaf04" y="824.791379"/>
      </g>
     </g>
     <g id="text_56">
      <!-- 25K -->
      <g transform="translate(1093.658977 829.350442)scale(0.12 -0.12)">
       <defs>
        <path d="M 628 4666 
L 1259 4666 
L 1259 2694 
L 3353 4666 
L 4166 4666 
L 1850 2491 
L 4331 0 
L 3500 0 
L 1259 2247 
L 1259 0 
L 628 0 
L 628 4666 
z
" id="DejaVuSans-4b" transform="scale(0.015625)"/>
       </defs>
       <use xlink:href="#DejaVuSans-32"/>
       <use x="63.623047" xlink:href="#DejaVuSans-35"/>
       <use x="127.246094" xlink:href="#DejaVuSans-4b"/>
      </g>
     </g>
    </g>
    <g id="ytick_24">
     <g id="line2d_56">
      <g>
       <use style="stroke:#000000;stroke-width:0.8;" x="1123.798352" xlink:href="#m2d4ceeaf04" y="789.585883"/>
      </g>
     </g>
     <g id="text_57">
      <!-- 50K -->
      <g transform="translate(1093.658977 794.144946)scale(0.12 -0.12)">
       <use xlink:href="#DejaVuSans-35"/>
       <use x="63.623047" xlink:href="#DejaVuSans-30"/>
       <use x="127.246094" xlink:href="#DejaVuSans-4b"/>
      </g>
     </g>
    </g>
    <g id="ytick_25">
     <g id="line2d_57">
      <g>
       <use style="stroke:#000000;stroke-width:0.8;" x="1123.798352" xlink:href="#m2d4ceeaf04" y="754.380388"/>
      </g>
     </g>
     <g id="text_58">
      <!-- 75K -->
      <g transform="translate(1093.658977 758.93945)scale(0.12 -0.12)">
       <defs>
        <path d="M 525 4666 
L 3525 4666 
L 3525 4397 
L 1831 0 
L 1172 0 
L 2766 4134 
L 525 4134 
L 525 4666 
z
" id="DejaVuSans-37" transform="scale(0.015625)"/>
       </defs>
       <use xlink:href="#DejaVuSans-37"/>
       <use x="63.623047" xlink:href="#DejaVuSans-35"/>
       <use x="127.246094" xlink:href="#DejaVuSans-4b"/>
      </g>
     </g>
    </g>
    <g id="ytick_26">
     <g id="line2d_58">
      <g>
       <use style="stroke:#000000;stroke-width:0.8;" x="1123.798352" xlink:href="#m2d4ceeaf04" y="719.174892"/>
      </g>
     </g>
     <g id="text_59">
      <!-- 100K -->
      <g transform="translate(1086.023977 723.733954)scale(0.12 -0.12)">
       <use xlink:href="#DejaVuSans-31"/>
       <use x="63.623047" xlink:href="#DejaVuSans-30"/>
       <use x="127.246094" xlink:href="#DejaVuSans-30"/>
       <use x="190.869141" xlink:href="#DejaVuSans-4b"/>
      </g>
     </g>
    </g>
    <g id="ytick_27">
     <g id="line2d_59">
      <g>
       <use style="stroke:#000000;stroke-width:0.8;" x="1123.798352" xlink:href="#m2d4ceeaf04" y="683.969396"/>
      </g>
     </g>
     <g id="text_60">
      <!-- 125K -->
      <g transform="translate(1086.023977 688.528459)scale(0.12 -0.12)">
       <use xlink:href="#DejaVuSans-31"/>
       <use x="63.623047" xlink:href="#DejaVuSans-32"/>
       <use x="127.246094" xlink:href="#DejaVuSans-35"/>
       <use x="190.869141" xlink:href="#DejaVuSans-4b"/>
      </g>
     </g>
    </g>
    <g id="ytick_28">
     <g id="line2d_60">
      <g>
       <use style="stroke:#000000;stroke-width:0.8;" x="1123.798352" xlink:href="#m2d4ceeaf04" y="648.7639"/>
      </g>
     </g>
     <g id="text_61">
      <!-- 150K -->
      <g transform="translate(1086.023977 653.322963)scale(0.12 -0.12)">
       <use xlink:href="#DejaVuSans-31"/>
       <use x="63.623047" xlink:href="#DejaVuSans-35"/>
       <use x="127.246094" xlink:href="#DejaVuSans-30"/>
       <use x="190.869141" xlink:href="#DejaVuSans-4b"/>
      </g>
     </g>
    </g>
    <g id="ytick_29">
     <g id="line2d_61">
      <g>
       <use style="stroke:#000000;stroke-width:0.8;" x="1123.798352" xlink:href="#m2d4ceeaf04" y="613.558405"/>
      </g>
     </g>
     <g id="text_62">
      <!-- 175K -->
      <g transform="translate(1086.023977 618.117467)scale(0.12 -0.12)">
       <use xlink:href="#DejaVuSans-31"/>
       <use x="63.623047" xlink:href="#DejaVuSans-37"/>
       <use x="127.246094" xlink:href="#DejaVuSans-35"/>
       <use x="190.869141" xlink:href="#DejaVuSans-4b"/>
      </g>
     </g>
    </g>
    <g id="ytick_30">
     <g id="line2d_62">
      <g>
       <use style="stroke:#000000;stroke-width:0.8;" x="1123.798352" xlink:href="#m2d4ceeaf04" y="578.352909"/>
      </g>
     </g>
     <g id="text_63">
      <!-- 200K -->
      <g transform="translate(1086.023977 582.911971)scale(0.12 -0.12)">
       <use xlink:href="#DejaVuSans-32"/>
       <use x="63.623047" xlink:href="#DejaVuSans-30"/>
       <use x="127.246094" xlink:href="#DejaVuSans-30"/>
       <use x="190.869141" xlink:href="#DejaVuSans-4b"/>
      </g>
     </g>
    </g>
    <g id="ytick_31">
     <g id="line2d_63">
      <g>
       <use style="stroke:#000000;stroke-width:0.8;" x="1123.798352" xlink:href="#m2d4ceeaf04" y="543.147413"/>
      </g>
     </g>
     <g id="text_64">
      <!-- 225K -->
      <g transform="translate(1086.023977 547.706475)scale(0.12 -0.12)">
       <use xlink:href="#DejaVuSans-32"/>
       <use x="63.623047" xlink:href="#DejaVuSans-32"/>
       <use x="127.246094" xlink:href="#DejaVuSans-35"/>
       <use x="190.869141" xlink:href="#DejaVuSans-4b"/>
      </g>
     </g>
    </g>
    <g id="ytick_32">
     <g id="line2d_64">
      <g>
       <use style="stroke:#000000;stroke-width:0.8;" x="1123.798352" xlink:href="#m2d4ceeaf04" y="507.941917"/>
      </g>
     </g>
     <g id="text_65">
      <!-- 250K -->
      <g transform="translate(1086.023977 512.50098)scale(0.12 -0.12)">
       <use xlink:href="#DejaVuSans-32"/>
       <use x="63.623047" xlink:href="#DejaVuSans-35"/>
       <use x="127.246094" xlink:href="#DejaVuSans-30"/>
       <use x="190.869141" xlink:href="#DejaVuSans-4b"/>
      </g>
     </g>
    </g>
    <g id="text_66">
     <!-- N of operations -->
     <g transform="translate(1078.28054 744.268125)rotate(-90)scale(0.18 -0.18)">
      <defs>
       <path d="M 628 4666 
L 1478 4666 
L 3547 763 
L 3547 4666 
L 4159 4666 
L 4159 0 
L 3309 0 
L 1241 3903 
L 1241 0 
L 628 0 
L 628 4666 
z
" id="DejaVuSans-4e" transform="scale(0.015625)"/>
       <path d="M 434 1850 
L 2584 1850 
L 2584 1466 
L 434 1466 
L 434 1850 
z
M 1509 4750 
Q 2069 4750 2391 4404 
Q 2713 4059 2713 3463 
Q 2713 2866 2391 2523 
Q 2069 2181 1509 2181 
Q 950 2181 625 2525 
Q 300 2869 300 3463 
Q 300 4059 625 4404 
Q 950 4750 1509 4750 
z
M 1509 4391 
Q 1181 4391 984 4139 
Q 788 3888 788 3463 
Q 788 3047 986 2797 
Q 1184 2547 1509 2547 
Q 1838 2547 2033 2797 
Q 2228 3047 2228 3463 
Q 2228 3891 2034 4141 
Q 1841 4391 1509 4391 
z
" id="DejaVuSans-ba" transform="scale(0.015625)"/>
       <path d="M 2375 4863 
L 2375 4384 
L 1825 4384 
Q 1516 4384 1395 4259 
Q 1275 4134 1275 3809 
L 1275 3500 
L 2222 3500 
L 2222 3053 
L 1275 3053 
L 1275 0 
L 697 0 
L 697 3053 
L 147 3053 
L 147 3500 
L 697 3500 
L 697 3744 
Q 697 4328 969 4595 
Q 1241 4863 1831 4863 
L 2375 4863 
z
" id="DejaVuSans-66" transform="scale(0.015625)"/>
       <path d="M 1172 4494 
L 1172 3500 
L 2356 3500 
L 2356 3053 
L 1172 3053 
L 1172 1153 
Q 1172 725 1289 603 
Q 1406 481 1766 481 
L 2356 481 
L 2356 0 
L 1766 0 
Q 1100 0 847 248 
Q 594 497 594 1153 
L 594 3053 
L 172 3053 
L 172 3500 
L 594 3500 
L 594 4494 
L 1172 4494 
z
" id="DejaVuSans-74" transform="scale(0.015625)"/>
       <path d="M 3513 2113 
L 3513 0 
L 2938 0 
L 2938 2094 
Q 2938 2591 2744 2837 
Q 2550 3084 2163 3084 
Q 1697 3084 1428 2787 
Q 1159 2491 1159 1978 
L 1159 0 
L 581 0 
L 581 3500 
L 1159 3500 
L 1159 2956 
Q 1366 3272 1645 3428 
Q 1925 3584 2291 3584 
Q 2894 3584 3203 3211 
Q 3513 2838 3513 2113 
z
" id="DejaVuSans-6e" transform="scale(0.015625)"/>
      </defs>
      <use xlink:href="#DejaVuSans-4e"/>
      <use x="74.804688" xlink:href="#DejaVuSans-ba"/>
      <use x="121.923828" xlink:href="#DejaVuSans-20"/>
      <use x="153.710938" xlink:href="#DejaVuSans-6f"/>
      <use x="214.892578" xlink:href="#DejaVuSans-66"/>
      <use x="250.097656" xlink:href="#DejaVuSans-20"/>
      <use x="281.884766" xlink:href="#DejaVuSans-6f"/>
      <use x="343.066406" xlink:href="#DejaVuSans-70"/>
      <use x="406.542969" xlink:href="#DejaVuSans-65"/>
      <use x="468.066406" xlink:href="#DejaVuSans-72"/>
      <use x="509.179688" xlink:href="#DejaVuSans-61"/>
      <use x="570.458984" xlink:href="#DejaVuSans-74"/>
      <use x="609.667969" xlink:href="#DejaVuSans-69"/>
      <use x="637.451172" xlink:href="#DejaVuSans-6f"/>
      <use x="698.632812" xlink:href="#DejaVuSans-6e"/>
      <use x="762.011719" xlink:href="#DejaVuSans-73"/>
     </g>
    </g>
   </g>
   <g id="line2d_65">
    <path clip-path="url(#pb46e6c9e2e)" d="M 1123.798352 859.996875 
L 1131.19608 482.068694 
L 1138.593807 859.996875 
L 1145.991534 482.068694 
L 1153.389261 859.996875 
L 1160.786989 482.068694 
L 1168.184716 859.99265 
L 1175.582443 482.068694 
L 1182.98017 859.903932 
L 1190.377898 482.034897 
L 1197.775625 859.903932 
L 1205.173352 482.034897 
L 1212.57108 859.899708 
L 1219.968807 482.034897 
L 1227.366534 859.8983 
L 1234.764261 482.034897 
L 1242.161989 859.8983 
L 1249.559716 482.034897 
L 1256.957443 859.8983 
L 1264.35517 482.034897 
L 1271.752898 859.729313 
L 1279.150625 482.034897 
L 1286.548352 859.729313 
L 1293.94608 482.034897 
L 1301.343807 859.729313 
L 1308.741534 482.034897 
L 1316.139261 859.729313 
L 1323.536989 482.034897 
L 1330.934716 859.729313 
L 1338.332443 482.034897 
L 1345.73017 859.729313 
L 1353.127898 482.034897 
L 1360.525625 859.729313 
L 1367.923352 482.034897 
L 1375.32108 859.729313 
L 1382.718807 482.034897 
L 1390.116534 859.729313 
L 1397.514261 482.034897 
L 1404.911989 859.729313 
L 1412.309716 482.034897 
L 1419.707443 859.729313 
L 1427.10517 482.034897 
L 1434.502898 859.729313 
L 1441.900625 482.034897 
L 1449.298352 859.729313 
L 1456.69608 482.034897 
L 1464.093807 859.729313 
L 1471.491534 482.034897 
L 1478.889261 859.729313 
L 1486.286989 482.034897 
L 1493.684716 859.729313 
L 1501.082443 482.034897 
L 1508.48017 859.729313 
L 1515.877898 482.034897 
L 1523.275625 859.729313 
L 1530.673352 482.034897 
L 1538.07108 859.729313 
L 1545.468807 482.025039 
L 1552.866534 859.725089 
L 1560.264261 482.023631 
L 1567.661989 859.72368 
L 1575.059716 482.019407 
L 1582.457443 859.72368 
L 1589.85517 482.019407 
L 1597.252898 859.72368 
L 1604.650625 482.019407 
L 1612.048352 859.72368 
L 1619.44608 482.019407 
L 1626.843807 859.72368 
L 1634.241534 482.019407 
L 1641.639261 859.72368 
L 1649.036989 482.019407 
L 1656.434716 859.72368 
L 1663.832443 482.019407 
L 1671.23017 859.72368 
L 1678.627898 482.019407 
L 1686.025625 859.72368 
L 1693.423352 482.019407 
L 1700.82108 859.72368 
L 1708.218807 482.019407 
L 1715.616534 859.72368 
L 1723.014261 482.019407 
L 1730.411989 859.72368 
L 1737.809716 482.019407 
L 1745.207443 859.72368 
L 1752.60517 482.019407 
L 1760.002898 859.72368 
L 1767.400625 482.019407 
L 1774.798352 859.72368 
L 1782.19608 482.019407 
L 1789.593807 859.72368 
L 1796.991534 482.019407 
L 1804.389261 859.72368 
L 1811.786989 482.019407 
L 1819.184716 859.72368 
L 1826.582443 482.019407 
L 1833.98017 859.72368 
L 1841.377898 482.019407 
L 1848.775625 859.72368 
L 1856.173352 482.019407 
L 1863.57108 859.72368 
L 1870.968807 482.019407 
L 1878.366534 859.72368 
L 1885.764261 482.019407 
L 1893.161989 859.72368 
L 1900.559716 482.019407 
L 1907.957443 859.72368 
L 1915.35517 482.019407 
L 1922.752898 859.72368 
L 1930.150625 482.019407 
L 1937.548352 859.72368 
L 1944.94608 482.019407 
L 1952.343807 859.72368 
L 1959.741534 482.019407 
L 1967.139261 859.72368 
L 1974.536989 482.019407 
L 1981.934716 859.72368 
L 1989.332443 482.019407 
L 1996.73017 859.722272 
L 2004.127898 482.017998 
L 2011.525625 859.722272 
L 2018.923352 482.01659 
L 2026.32108 859.718047 
L 2027.360625 806.64258 
L 2027.360625 806.64258 
" style="fill:none;stroke:#1f77b4;stroke-linecap:square;stroke-width:3;"/>
   </g>
   <g id="line2d_66">
    <path clip-path="url(#pb46e6c9e2e)" d="M 1123.798352 859.996875 
L 1131.19608 738.413991 
L 1138.593807 859.996875 
L 1145.991534 738.40695 
L 1153.389261 859.85042 
L 1160.786989 738.40695 
L 1168.184716 859.849012 
L 1175.582443 738.40695 
L 1182.98017 859.849012 
L 1190.377898 738.366112 
L 1197.775625 859.849012 
L 1205.173352 738.366112 
L 1212.57108 859.805357 
L 1219.968807 738.366112 
L 1227.366534 859.802541 
L 1234.764261 738.366112 
L 1242.161989 859.798316 
L 1249.559716 738.364704 
L 1256.957443 859.798316 
L 1264.35517 738.330906 
L 1271.752898 859.798316 
L 1279.150625 738.32809 
L 1286.548352 859.798316 
L 1293.94608 738.32809 
L 1301.343807 859.798316 
L 1308.741534 738.32809 
L 1316.139261 859.796908 
L 1323.536989 738.326682 
L 1330.934716 859.796908 
L 1338.332443 738.326682 
L 1345.73017 859.77156 
L 1353.127898 738.326682 
L 1360.525625 859.77156 
L 1367.923352 738.326682 
L 1375.32108 859.77156 
L 1382.718807 738.281619 
L 1390.116534 859.72368 
L 1397.514261 738.233739 
L 1404.911989 859.678617 
L 1412.309716 738.166145 
L 1419.707443 859.619472 
L 1427.10517 738.118265 
L 1434.502898 859.496957 
L 1441.900625 738.118265 
L 1449.298352 859.496957 
L 1456.69608 738.118265 
L 1464.093807 859.494141 
L 1471.491534 738.045038 
L 1478.889261 859.494141 
L 1486.286989 738.045038 
L 1493.684716 859.494141 
L 1501.082443 738.045038 
L 1508.48017 859.489916 
L 1515.877898 738.045038 
L 1523.275625 859.489916 
L 1530.673352 738.045038 
L 1538.07108 859.489916 
L 1545.468807 738.043629 
L 1552.866534 859.489916 
L 1560.264261 737.987301 
L 1567.661989 859.489916 
L 1575.059716 737.987301 
L 1582.457443 859.489916 
L 1589.85517 737.987301 
L 1597.252898 859.487099 
L 1604.650625 737.987301 
L 1612.048352 859.487099 
L 1619.44608 737.987301 
L 1626.843807 859.482875 
L 1634.241534 737.987301 
L 1641.639261 859.482875 
L 1649.036989 737.987301 
L 1656.434716 859.482875 
L 1663.832443 737.984484 
L 1671.23017 859.482875 
L 1678.627898 737.984484 
L 1686.025625 859.465976 
L 1693.423352 737.984484 
L 1700.82108 859.408239 
L 1708.218807 737.984484 
L 1715.616534 859.408239 
L 1723.014261 737.984484 
L 1730.411989 859.405423 
L 1737.809716 737.983076 
L 1745.207443 859.405423 
L 1752.60517 737.983076 
L 1760.002898 859.405423 
L 1767.400625 737.983076 
L 1774.798352 859.402606 
L 1782.19608 737.983076 
L 1789.593807 859.402606 
L 1796.991534 737.983076 
L 1804.389261 859.402606 
L 1811.786989 737.93238 
L 1819.184716 859.389932 
L 1826.582443 737.929564 
L 1833.98017 859.389932 
L 1841.377898 737.929564 
L 1848.775625 859.389932 
L 1856.173352 737.929564 
L 1863.57108 859.387116 
L 1870.968807 737.929564 
L 1878.366534 859.387116 
L 1885.764261 737.929564 
L 1893.161989 859.384299 
L 1900.559716 737.929564 
L 1907.957443 859.384299 
L 1915.35517 737.929564 
L 1922.752898 859.384299 
L 1930.150625 737.926747 
L 1937.548352 859.384299 
L 1944.94608 737.926747 
L 1952.343807 859.384299 
L 1959.741534 737.926747 
L 1967.139261 859.361768 
L 1974.536989 737.926747 
L 1981.934716 859.361768 
L 1989.332443 737.926747 
L 1996.73017 859.295582 
L 2004.127898 737.887317 
L 2011.525625 859.277275 
L 2018.923352 737.846479 
L 2026.32108 859.277275 
L 2027.360625 842.213543 
L 2027.360625 842.213543 
" style="fill:none;stroke:#ff7f0e;stroke-linecap:square;stroke-width:3;"/>
   </g>
   <g id="patch_19">
    <path d="M 1123.798352 859.996875 
L 1123.798352 481.996875 
" style="fill:none;stroke:#000000;stroke-linecap:square;stroke-linejoin:miter;stroke-width:0.8;"/>
   </g>
   <g id="patch_20">
    <path d="M 2011.525625 859.996875 
L 2011.525625 481.996875 
" style="fill:none;stroke:#000000;stroke-linecap:square;stroke-linejoin:miter;stroke-width:0.8;"/>
   </g>
   <g id="patch_21">
    <path d="M 1123.798352 859.996875 
L 2011.525625 859.996875 
" style="fill:none;stroke:#000000;stroke-linecap:square;stroke-linejoin:miter;stroke-width:0.8;"/>
   </g>
   <g id="patch_22">
    <path d="M 1123.798352 481.996875 
L 2011.525625 481.996875 
" style="fill:none;stroke:#000000;stroke-linecap:square;stroke-linejoin:miter;stroke-width:0.8;"/>
   </g>
   <g id="text_67">
    <!-- Disk I/O -->
    <g transform="translate(1528.815114 475.996875)scale(0.2 -0.2)">
     <defs>
      <path d="M 628 4666 
L 1259 4666 
L 1259 0 
L 628 0 
L 628 4666 
z
" id="DejaVuSans-49" transform="scale(0.015625)"/>
      <path d="M 1625 4666 
L 2156 4666 
L 531 -594 
L 0 -594 
L 1625 4666 
z
" id="DejaVuSans-2f" transform="scale(0.015625)"/>
      <path d="M 2522 4238 
Q 1834 4238 1429 3725 
Q 1025 3213 1025 2328 
Q 1025 1447 1429 934 
Q 1834 422 2522 422 
Q 3209 422 3611 934 
Q 4013 1447 4013 2328 
Q 4013 3213 3611 3725 
Q 3209 4238 2522 4238 
z
M 2522 4750 
Q 3503 4750 4090 4092 
Q 4678 3434 4678 2328 
Q 4678 1225 4090 567 
Q 3503 -91 2522 -91 
Q 1538 -91 948 565 
Q 359 1222 359 2328 
Q 359 3434 948 4092 
Q 1538 4750 2522 4750 
z
" id="DejaVuSans-4f" transform="scale(0.015625)"/>
     </defs>
     <use xlink:href="#DejaVuSans-44"/>
     <use x="77.001953" xlink:href="#DejaVuSans-69"/>
     <use x="104.785156" xlink:href="#DejaVuSans-73"/>
     <use x="156.884766" xlink:href="#DejaVuSans-6b"/>
     <use x="214.794922" xlink:href="#DejaVuSans-20"/>
     <use x="246.582031" xlink:href="#DejaVuSans-49"/>
     <use x="276.074219" xlink:href="#DejaVuSans-2f"/>
     <use x="309.765625" xlink:href="#DejaVuSans-4f"/>
    </g>
   </g>
   <g id="legend_2">
    <g id="patch_23">
     <path d="M 1905.611562 538.03125 
L 2001.025625 538.03125 
Q 2004.025625 538.03125 2004.025625 535.03125 
L 2004.025625 492.496875 
Q 2004.025625 489.496875 2001.025625 489.496875 
L 1905.611562 489.496875 
Q 1902.611562 489.496875 1902.611562 492.496875 
L 1902.611562 535.03125 
Q 1902.611562 538.03125 1905.611562 538.03125 
z
" style="fill:#ffffff;opacity:0.8;stroke:#cccccc;stroke-linejoin:miter;"/>
    </g>
    <g id="line2d_67">
     <path d="M 1908.611562 501.644531 
L 1938.611562 501.644531 
" style="fill:none;stroke:#1f77b4;stroke-linecap:square;stroke-width:3;"/>
    </g>
    <g id="line2d_68"/>
    <g id="text_68">
     <!-- Reads -->
     <g transform="translate(1950.611562 506.894531)scale(0.15 -0.15)">
      <defs>
       <path d="M 2906 2969 
L 2906 4863 
L 3481 4863 
L 3481 0 
L 2906 0 
L 2906 525 
Q 2725 213 2448 61 
Q 2172 -91 1784 -91 
Q 1150 -91 751 415 
Q 353 922 353 1747 
Q 353 2572 751 3078 
Q 1150 3584 1784 3584 
Q 2172 3584 2448 3432 
Q 2725 3281 2906 2969 
z
M 947 1747 
Q 947 1113 1208 752 
Q 1469 391 1925 391 
Q 2381 391 2643 752 
Q 2906 1113 2906 1747 
Q 2906 2381 2643 2742 
Q 2381 3103 1925 3103 
Q 1469 3103 1208 2742 
Q 947 2381 947 1747 
z
" id="DejaVuSans-64" transform="scale(0.015625)"/>
      </defs>
      <use xlink:href="#DejaVuSans-52"/>
      <use x="64.982422" xlink:href="#DejaVuSans-65"/>
      <use x="126.505859" xlink:href="#DejaVuSans-61"/>
      <use x="187.785156" xlink:href="#DejaVuSans-64"/>
      <use x="251.261719" xlink:href="#DejaVuSans-73"/>
     </g>
    </g>
    <g id="line2d_69">
     <path d="M 1908.611562 523.661719 
L 1938.611562 523.661719 
" style="fill:none;stroke:#ff7f0e;stroke-linecap:square;stroke-width:3;"/>
    </g>
    <g id="line2d_70"/>
    <g id="text_69">
     <!-- Writes -->
     <g transform="translate(1950.611562 528.911719)scale(0.15 -0.15)">
      <defs>
       <path d="M 213 4666 
L 850 4666 
L 1831 722 
L 2809 4666 
L 3519 4666 
L 4500 722 
L 5478 4666 
L 6119 4666 
L 4947 0 
L 4153 0 
L 3169 4050 
L 2175 0 
L 1381 0 
L 213 4666 
z
" id="DejaVuSans-57" transform="scale(0.015625)"/>
      </defs>
      <use xlink:href="#DejaVuSans-57"/>
      <use x="94.376953" xlink:href="#DejaVuSans-72"/>
      <use x="135.490234" xlink:href="#DejaVuSans-69"/>
      <use x="163.273438" xlink:href="#DejaVuSans-74"/>
      <use x="202.482422" xlink:href="#DejaVuSans-65"/>
      <use x="264.005859" xlink:href="#DejaVuSans-73"/>
     </g>
    </g>
   </g>
  </g>
 </g>
 <defs>
  <clipPath id="pddeb565e44">
   <rect height="378" width="887.727273" x="58.525625" y="28.396875"/>
  </clipPath>
  <clipPath id="pc576c25527">
   <rect height="378" width="887.727273" x="1123.798352" y="28.396875"/>
  </clipPath>
  <clipPath id="p50aa5622d7">
   <rect height="378" width="887.727273" x="58.525625" y="481.996875"/>
  </clipPath>
  <clipPath id="pb46e6c9e2e">
   <rect height="378" width="887.727273" x="1123.798352" y="481.996875"/>
  </clipPath>
 </defs>
</svg>
